<svg xmlns="http://www.w3.org/2000/svg" viewBox="0 0 560 420" role="img" aria-label="iPad Safari 주소창 우측 공유 버튼 위치">
  <style>
    .frame { fill: #1a1a2e; }
    .screen { fill: #faf8f5; }
    .bar { fill: #e8e4df; }
    .icon { fill: #1e3a5f; }
    .caption { fill: #1a1a2e; font: 600 14px -apple-system, "Apple SD Gothic Neo", sans-serif; }
    .highlight { fill: none; stroke: #d94a4a; stroke-width: 3; }
    .arrow { fill: #d94a4a; }
  </style>
  <rect class="frame" x="20" y="20" width="520" height="380" rx="24"/>
  <rect class="screen" x="30" y="30" width="500" height="360" rx="6"/>
  <rect class="bar" x="40" y="42" width="480" height="36" rx="8"/>
  <rect fill="#d6d2cc" x="180" y="52" width="260" height="16" rx="4"/>
  <g transform="translate(470,50)">
    <path class="icon" d="M12 2l-4 4h3v10h2V6h3zM4 10v10h16V10h-2v8H6v-8z"/>
  </g>
  <circle class="highlight" cx="482" cy="60" r="20"/>
  <path class="arrow" d="M430 110 l50 -40 -2 12 10 0 z"/>
  <text x="300" y="135" class="caption">주소창 오른쪽의 공유 버튼을 누르세요</text>
  <rect fill="#d6d2cc" x="60" y="120" width="300" height="10" rx="3"/>
  <rect fill="#d6d2cc" x="60" y="140" width="440" height="10" rx="3"/>
  <rect fill="#d6d2cc" x="60" y="160" width="400" height="10" rx="3"/>
  <rect fill="#d6d2cc" x="60" y="180" width="430" height="10" rx="3"/>
</svg>
