<svg xmlns="http://www.w3.org/2000/svg" viewBox="0 0 360 640" role="img" aria-label="iPhone Safari 하단 공유 버튼 위치">
  <style>
    .frame { fill: #1a1a2e; }
    .screen { fill: #faf8f5; }
    .bar { fill: #e8e4df; }
    .icon { fill: #1e3a5f; }
    .caption { fill: #1a1a2e; font: 600 14px -apple-system, "Apple SD Gothic Neo", sans-serif; }
    .highlight { fill: none; stroke: #d94a4a; stroke-width: 3; }
    .arrow { fill: #d94a4a; }
  </style>
  <rect class="frame" x="20" y="20" width="320" height="600" rx="40"/>
  <rect class="screen" x="30" y="80" width="300" height="500" rx="4"/>
  <rect class="screen" fill="#1a1a2e" x="140" y="30" width="80" height="14" rx="7"/>
  <rect class="screen" x="60" y="110" width="240" height="16" rx="4" fill="#d6d2cc"/>
  <rect class="screen" x="60" y="140" width="200" height="10" rx="3" fill="#d6d2cc"/>
  <rect class="screen" x="60" y="160" width="240" height="10" rx="3" fill="#d6d2cc"/>
  <rect class="screen" x="60" y="180" width="220" height="10" rx="3" fill="#d6d2cc"/>
  <rect class="screen" x="60" y="210" width="240" height="10" rx="3" fill="#d6d2cc"/>
  <rect class="screen" x="60" y="230" width="180" height="10" rx="3" fill="#d6d2cc"/>
  <rect class="bar" x="30" y="530" width="300" height="50" rx="4"/>
  <text x="60" y="560" class="caption" fill="#555">aA</text>
  <text x="110" y="560" class="caption" fill="#555">bible.anglican.kr</text>
  <g transform="translate(240,540)">
    <path class="icon" d="M12 2l-4 4h3v10h2V6h3zM4 10v10h16V10h-2v8H6v-8z"/>
  </g>
  <circle class="highlight" cx="252" cy="555" r="22"/>
  <path class="arrow" d="M210 520 l28 22 -4 -10 10 -2 z"/>
  <text x="90" y="510" class="caption">공유 버튼을 누르세요</text>
</svg>
